<svg width="54" height="17" viewBox="0 0 54 17" fill="none" xmlns="http://www.w3.org/2000/svg">
<path fill-rule="evenodd" clip-rule="evenodd" d="M9 0L11.0206 6.21884H17.5595L12.2694 10.0623L14.2901 16.2812L9 12.4377L3.70993 16.2812L5.73056 10.0623L0.440491 6.21884H6.97937L9 0ZM27 0L29.0206 6.21884H35.5595L30.2694 10.0623L32.2901 16.2812L27 12.4377L21.7099 16.2812L23.7306 10.0623L18.4405 6.21884H24.9794L27 0ZM47.0206 6.21884L45 0L42.9794 6.21884H36.4405L41.7306 10.0623L39.7099 16.2812L45 12.4377L50.2901 16.2812L48.2694 10.0623L53.5595 6.21884H47.0206Z" fill="#DDBF20"/>
</svg>
