<svg width="14" height="14" viewBox="0 0 14 14" fill="none" xmlns="http://www.w3.org/2000/svg">
<circle cx="7" cy="7" r="6.85" fill="#601700" stroke="black" stroke-width="0.3"/>
<rect x="3" y="2" width="8" height="10" rx="1" fill="#F5F5F5" stroke="black" stroke-width="0.2" stroke-linejoin="round"/>
<path d="M6 1.1H8C8.49706 1.1 8.9 1.50294 8.9 2C8.9 2.49706 8.49706 2.9 8 2.9H6C5.50294 2.9 5.1 2.49706 5.1 2C5.1 1.50294 5.50294 1.1 6 1.1Z" fill="#F5F5F5" stroke="black" stroke-width="0.2" stroke-linejoin="round"/>
<rect x="4.1" y="4.1" width="0.8" height="0.8" fill="#F5F5F5" stroke="black" stroke-width="0.2"/>
<rect x="4.1" y="6.1" width="0.8" height="0.8" fill="#F5F5F5" stroke="black" stroke-width="0.2"/>
<rect x="4.1" y="8.1" width="0.8" height="0.8" fill="#F5F5F5" stroke="black" stroke-width="0.2"/>
<line x1="6" y1="4.75" x2="9" y2="4.75" stroke="black" stroke-width="0.5"/>
<line x1="6" y1="8.75" x2="9" y2="8.75" stroke="black" stroke-width="0.5"/>
<line x1="6" y1="6.75" x2="9" y2="6.75" stroke="black" stroke-width="0.5"/>
<path d="M4.987 10.333C4.987 10.301 5.10167 10.285 5.331 10.285C5.38367 10.285 5.45133 10.2873 5.534 10.292C5.61667 10.296 5.65933 10.302 5.662 10.31C5.66067 10.34 5.633 10.355 5.579 10.355C5.56367 10.355 5.538 10.3533 5.502 10.35C5.466 10.3467 5.435 10.345 5.409 10.345C5.38367 10.345 5.371 10.3507 5.371 10.362C5.371 10.5053 5.36767 10.719 5.361 11.003C5.347 11.013 5.32633 11.018 5.299 11.018C5.29833 10.9887 5.298 10.9537 5.298 10.913L5.303 10.481C5.303 10.429 5.30233 10.3853 5.301 10.35C5.287 10.3487 5.26867 10.348 5.246 10.348C5.224 10.348 5.18933 10.35 5.142 10.354C5.09467 10.3573 5.06133 10.359 5.042 10.359C5.00533 10.359 4.987 10.3503 4.987 10.333ZM5.59788 10.585C5.63188 10.533 5.68088 10.507 5.74488 10.507C5.80888 10.507 5.85988 10.533 5.89788 10.585C5.93655 10.637 5.95588 10.6963 5.95588 10.763C5.95588 10.829 5.93488 10.885 5.89288 10.931C5.85088 10.977 5.79755 11 5.73288 11C5.66822 11 5.62122 10.982 5.59188 10.946C5.56255 10.9093 5.54788 10.858 5.54788 10.792C5.54788 10.706 5.56455 10.637 5.59788 10.585ZM5.64188 10.638C5.63322 10.664 5.62655 10.69 5.62188 10.716C5.61788 10.742 5.61588 10.7663 5.61588 10.789C5.61588 10.811 5.61755 10.8313 5.62088 10.85C5.62422 10.868 5.62988 10.886 5.63788 10.904C5.64588 10.9213 5.65788 10.9353 5.67388 10.946C5.68988 10.956 5.70888 10.961 5.73088 10.961C5.77555 10.961 5.81288 10.9427 5.84288 10.906C5.87355 10.8693 5.88888 10.825 5.88888 10.773C5.88888 10.721 5.87488 10.6707 5.84688 10.622C5.81955 10.5727 5.78588 10.548 5.74588 10.548C5.72188 10.548 5.70088 10.5563 5.68288 10.573C5.66488 10.5897 5.65122 10.6113 5.64188 10.638ZM6.6557 10.199C6.63037 10.4283 6.6177 10.592 6.6177 10.69C6.6177 10.7873 6.6267 10.8847 6.6447 10.982C6.63137 10.9953 6.6197 11.002 6.6097 11.002C6.5997 11.002 6.59137 11.0007 6.5847 10.998C6.5707 10.9487 6.56237 10.895 6.5597 10.837C6.5437 10.8623 6.5317 10.8803 6.5237 10.891C6.51637 10.9017 6.50337 10.9173 6.4847 10.938C6.4507 10.978 6.41037 10.998 6.3637 10.998C6.32837 10.998 6.3027 10.9817 6.2867 10.949C6.27137 10.9157 6.2637 10.8733 6.2637 10.822C6.2637 10.77 6.26937 10.7207 6.2807 10.674C6.2927 10.6267 6.31304 10.586 6.3417 10.552C6.37037 10.5173 6.4057 10.5 6.4477 10.5C6.47304 10.5 6.49637 10.5053 6.5177 10.516C6.53904 10.5267 6.5537 10.541 6.5617 10.559C6.56304 10.541 6.56437 10.5133 6.5657 10.476C6.56704 10.4387 6.56837 10.4057 6.5697 10.377C6.5717 10.3477 6.5747 10.318 6.5787 10.288C6.58604 10.224 6.60237 10.192 6.6277 10.192C6.63637 10.192 6.6457 10.1943 6.6557 10.199ZM6.5387 10.595C6.5307 10.5803 6.5197 10.5697 6.5057 10.563C6.4917 10.5557 6.47304 10.552 6.4497 10.552C6.42704 10.552 6.4057 10.565 6.3857 10.591C6.34637 10.6423 6.3267 10.7167 6.3267 10.814C6.3267 10.8453 6.3317 10.8767 6.3417 10.908C6.3517 10.9387 6.36637 10.954 6.3857 10.954C6.4137 10.954 6.44104 10.9357 6.4677 10.899C6.49437 10.8623 6.51504 10.8203 6.5297 10.773C6.54437 10.725 6.5517 10.682 6.5517 10.644C6.5517 10.626 6.54737 10.6097 6.5387 10.595ZM6.78636 10.585C6.82036 10.533 6.86936 10.507 6.93336 10.507C6.99736 10.507 7.04836 10.533 7.08636 10.585C7.12503 10.637 7.14436 10.6963 7.14436 10.763C7.14436 10.829 7.12336 10.885 7.08136 10.931C7.03936 10.977 6.98603 11 6.92136 11C6.85669 11 6.80969 10.982 6.78036 10.946C6.75103 10.9093 6.73636 10.858 6.73636 10.792C6.73636 10.706 6.75303 10.637 6.78636 10.585ZM6.83036 10.638C6.82169 10.664 6.81503 10.69 6.81036 10.716C6.80636 10.742 6.80436 10.7663 6.80436 10.789C6.80436 10.811 6.80603 10.8313 6.80936 10.85C6.81269 10.868 6.81836 10.886 6.82636 10.904C6.83436 10.9213 6.84636 10.9353 6.86236 10.946C6.87836 10.956 6.89736 10.961 6.91936 10.961C6.96403 10.961 7.00136 10.9427 7.03136 10.906C7.06203 10.8693 7.07736 10.825 7.07736 10.773C7.07736 10.721 7.06336 10.6707 7.03536 10.622C7.00803 10.5727 6.97436 10.548 6.93436 10.548C6.91036 10.548 6.88936 10.5563 6.87136 10.573C6.85336 10.5897 6.83969 10.6113 6.83036 10.638ZM7.56818 10.319L7.56318 10.762C7.56318 10.8307 7.56518 10.8957 7.56918 10.957C7.60918 10.9597 7.64551 10.961 7.67818 10.961L7.88818 10.957C7.92085 10.957 7.93718 10.9663 7.93718 10.985C7.93718 11.007 7.86718 11.018 7.72718 11.018C7.69318 11.018 7.64951 11.0163 7.59618 11.013C7.54285 11.0097 7.51051 11.0043 7.49918 10.997C7.49585 10.9263 7.49418 10.811 7.49418 10.651L7.49918 10.299C7.51651 10.2857 7.53051 10.279 7.54118 10.279C7.55918 10.279 7.56818 10.2923 7.56818 10.319ZM8.07434 10.264C8.07367 10.2793 8.07334 10.2963 8.07334 10.315C8.07334 10.3337 8.07434 10.353 8.07634 10.373C8.067 10.3837 8.05434 10.389 8.03834 10.389C8.01834 10.389 8.00834 10.373 8.00834 10.341C8.00834 10.3397 8.00834 10.3347 8.00834 10.326C8.00834 10.3173 8.00834 10.3097 8.00834 10.303C8.009 10.2957 8.01034 10.2873 8.01234 10.278C8.017 10.262 8.02734 10.254 8.04334 10.254C8.05934 10.254 8.06967 10.2573 8.07434 10.264ZM8.01034 10.754C8.01034 10.6233 8.017 10.548 8.03034 10.528C8.035 10.5207 8.04067 10.517 8.04734 10.517C8.054 10.517 8.065 10.5207 8.08034 10.528C8.077 10.5847 8.07534 10.6463 8.07534 10.713C8.07534 10.713 8.076 10.7867 8.07734 10.934C8.07734 10.9547 8.07267 10.9693 8.06334 10.978C8.05467 10.986 8.04634 10.99 8.03834 10.99C8.031 10.99 8.02334 10.988 8.01534 10.984C8.012 10.8973 8.01034 10.8207 8.01034 10.754ZM8.45453 10.6C8.44853 10.5847 8.4372 10.5727 8.42053 10.564C8.40386 10.5553 8.3832 10.551 8.35853 10.551C8.33386 10.551 8.31053 10.5583 8.28853 10.573C8.2672 10.5877 8.25653 10.6073 8.25653 10.632C8.25653 10.6567 8.26653 10.6763 8.28653 10.691C8.3072 10.705 8.33186 10.7157 8.36053 10.723C8.38986 10.7303 8.4192 10.7383 8.44853 10.747C8.47786 10.755 8.50253 10.7687 8.52253 10.788C8.5432 10.8067 8.55353 10.8313 8.55353 10.862C8.55353 10.9067 8.53486 10.9407 8.49753 10.964C8.46086 10.9873 8.41653 10.999 8.36453 10.999C8.33386 10.999 8.29353 10.9907 8.24353 10.974C8.1942 10.9573 8.16953 10.9373 8.16953 10.914C8.16953 10.8967 8.1842 10.888 8.21353 10.888C8.2222 10.888 8.23353 10.8933 8.24753 10.904C8.2902 10.9353 8.33386 10.951 8.37853 10.951C8.40253 10.951 8.4232 10.947 8.44053 10.939C8.47253 10.9237 8.48853 10.899 8.48853 10.865C8.48853 10.8443 8.4782 10.8277 8.45753 10.815C8.43753 10.8023 8.41286 10.7923 8.38353 10.785C8.35486 10.7777 8.32586 10.7697 8.29653 10.761C8.2672 10.7523 8.2422 10.738 8.22153 10.718C8.20153 10.6973 8.19153 10.6713 8.19153 10.64C8.19153 10.5993 8.20986 10.5663 8.24653 10.541C8.2832 10.5157 8.32853 10.503 8.38253 10.503C8.4192 10.503 8.4522 10.5127 8.48153 10.532C8.51153 10.5507 8.52653 10.578 8.52653 10.614C8.52653 10.638 8.51286 10.65 8.48553 10.65C8.4742 10.65 8.46653 10.648 8.46253 10.644C8.4592 10.64 8.4572 10.633 8.45653 10.623C8.45653 10.6123 8.45586 10.6047 8.45453 10.6ZM8.64008 10.581C8.61008 10.581 8.58974 10.5737 8.57908 10.559C8.57908 10.5483 8.58341 10.54 8.59208 10.534C8.60141 10.528 8.61141 10.5243 8.62208 10.523C8.63274 10.521 8.65008 10.5193 8.67408 10.518C8.67608 10.5 8.67708 10.477 8.67708 10.449C8.67774 10.4203 8.67841 10.396 8.67908 10.376C8.68108 10.3233 8.68908 10.291 8.70308 10.279C8.70908 10.2737 8.71541 10.271 8.72208 10.271C8.72941 10.271 8.73574 10.2717 8.74108 10.273C8.74308 10.321 8.74408 10.35 8.74408 10.36L8.73808 10.51C8.73941 10.5107 8.74308 10.511 8.74908 10.511L8.82108 10.508C8.87308 10.508 8.89908 10.516 8.89908 10.532C8.89908 10.5547 8.88974 10.568 8.87108 10.572C8.86241 10.574 8.85208 10.575 8.84008 10.575C8.82874 10.575 8.81374 10.5737 8.79508 10.571C8.77708 10.5677 8.76408 10.566 8.75608 10.566C8.74808 10.566 8.74274 10.5663 8.74008 10.567C8.73808 10.5863 8.73708 10.6057 8.73708 10.625C8.73708 10.6437 8.73741 10.6673 8.73808 10.696C8.73941 10.724 8.74208 10.7577 8.74608 10.797C8.75074 10.8363 8.76041 10.8703 8.77508 10.899C8.78974 10.927 8.80841 10.941 8.83108 10.941C8.84241 10.941 8.85574 10.9367 8.87108 10.928C8.88641 10.9187 8.89808 10.914 8.90608 10.914C8.91474 10.914 8.92208 10.916 8.92808 10.92C8.93474 10.9233 8.93808 10.9273 8.93808 10.932C8.93808 10.946 8.92374 10.9597 8.89508 10.973C8.86708 10.9857 8.84308 10.992 8.82308 10.992C8.74974 10.992 8.70408 10.9227 8.68608 10.784C8.68074 10.744 8.67674 10.6753 8.67408 10.578C8.66341 10.58 8.65208 10.581 8.64008 10.581Z" fill="black"/>
</svg>
